<svg width="632" height="157" viewBox="0 0 632 157" fill="none" xmlns="http://www.w3.org/2000/svg">
<path fill-rule="evenodd" clip-rule="evenodd" d="M631.014 37.778L604.729 56.6766C578.445 75.5753 525.875 113.373 473.3 135.429C420.725 157.486 368.144 163.801 315.553 144.932C262.963 126.062 210.364 82.0073 157.772 59.9895C105.181 37.9718 52.5973 37.9911 26.3057 38.0008L0.0139935 38.0105L7.09972e-05 0.232545L26.2917 0.222856C52.5834 0.213167 105.167 0.193788 157.75 0.174409C210.333 0.15503 262.917 0.135652 315.5 0.116273C368.083 0.0968942 420.667 0.0775154 473.25 0.0581367C525.833 0.038758 578.417 0.0193792 604.708 0.00968985L631 4.77154e-07L631.014 37.778Z" fill="#6C5CE7"/>
</svg>
